<svg xmlns="http://www.w3.org/2000/svg" viewBox="0 0 64 64" role="img" aria-label="SchoolDom favicon">
  <defs>
    <linearGradient id="bg" x1="0" y1="0" x2="1" y2="1">
      <stop offset="0%" stop-color="#0B3B8F"/>
      <stop offset="100%" stop-color="#0E63C9"/>
    </linearGradient>
    <linearGradient id="cap" x1="0" y1="0" x2="1" y2="1">
      <stop offset="0%" stop-color="#1D77E6"/>
      <stop offset="100%" stop-color="#0A3F9A"/>
    </linearGradient>
    <linearGradient id="tassel" x1="0" y1="0" x2="0" y2="1">
      <stop offset="0%" stop-color="#FFC24C"/>
      <stop offset="100%" stop-color="#FF8A00"/>
    </linearGradient>
  </defs>

  <rect width="64" height="64" rx="12" fill="url(#bg)"/>

  <!-- Open book -->
  <path d="M10 41c7-4 15-4 22 0V22c-7-4-15-4-22 0z" fill="#F6F5EF"/>
  <path d="M54 41c-7-4-15-4-22 0V22c7-4 15-4 22 0z" fill="#F6F5EF"/>
  <path d="M32 22v19" stroke="#D3CCBC" stroke-width="1.5"/>
  <path d="M10 41c7-4 15-4 22 0 7-4 15-4 22 0" fill="none" stroke="#A5CAFF" stroke-width="2"/>

  <!-- Graduation cap -->
  <path d="M16 20l16-7 16 7-16 7z" fill="url(#cap)"/>
  <path d="M22 23.2V30l10 5.5L42 30v-6.8l-10 4.4z" fill="#0B3B8F"/>
  <circle cx="36" cy="24.2" r="1.5" fill="#8CD5FF"/>
  <path d="M36 24.2h8v8" fill="none" stroke="#FFB130" stroke-width="1.8" stroke-linecap="round"/>
  <path d="M44 32v6.4c0 1.8 2.8 1.8 2.8 0V32c0-1.8-2.8-1.8-2.8 0z" fill="url(#tassel)"/>
</svg>
